<svg width="18" height="18" viewBox="0 0 18 18" fill="none" xmlns="http://www.w3.org/2000/svg">
<path d="M0.000100347 17C-0.0021465 16.8034 0.0573075 16.6111 0.1701 16.45L4.7301 9.55003C4.83763 9.38676 4.89494 9.19554 4.89494 9.00003C4.89494 8.80453 4.83763 8.61331 4.7301 8.45003L0.170101 1.55003C0.0517616 1.36642 -0.00319867 1.1491 0.0136203 0.931305C0.0304393 0.713506 0.118114 0.507206 0.263243 0.343937C0.408371 0.180668 0.602968 0.0694116 0.817293 0.027173C1.03162 -0.0150656 1.25388 0.0140372 1.4501 0.110033L17.4501 8.11003C17.6139 8.19395 17.7514 8.32145 17.8474 8.47848C17.9433 8.63551 17.9941 8.81599 17.9941 9.00003C17.9941 9.18408 17.9433 9.36456 17.8474 9.52159C17.7514 9.67862 17.6139 9.80612 17.4501 9.89003L1.4501 17.89C1.25279 17.9897 1.028 18.0212 0.810888 17.9796C0.593772 17.938 0.396566 17.8256 0.2501 17.66C0.0893223 17.4777 0.000449381 17.2431 0.000100347 17Z" fill="#502773"/>
</svg>
